<svg width="126" height="123" viewBox="0 0 126 123" fill="none" xmlns="http://www.w3.org/2000/svg">
<g id="bolt-logo" clip-path="url(#clip0_166_1652)">
<path id="Vector" fill-rule="evenodd" clip-rule="evenodd" d="M101.113 35.9937V89.2551H88.1256V38.6567L101.113 35.9937ZM64.1535 94.2959C67.7176 94.2959 70.647 97.1017 70.647 100.573C70.647 104.045 67.7664 106.85 64.1535 106.85C60.5894 106.85 57.66 104.045 57.66 100.573C57.66 97.1017 60.5894 94.2959 64.1535 94.2959ZM64.1535 51.1161C75.1875 51.1161 84.1709 59.7711 84.1709 70.4709C84.1709 81.1708 75.1875 89.8258 64.1535 89.8258C53.0707 89.8258 44.1361 81.1708 44.1361 70.4709C44.1361 59.7711 53.1195 51.1161 64.1535 51.1161ZM64.1535 76.7006C67.7176 76.7006 70.647 73.8949 70.647 70.4234C70.647 66.9519 67.7664 64.1461 64.1535 64.1461C60.5894 64.1461 57.66 66.9519 57.66 70.4234C57.66 73.9424 60.5894 76.7006 64.1535 76.7006ZM23.3375 76.7006C25.5833 76.7006 27.3898 74.9411 27.3898 72.8011C27.3898 70.6612 25.5833 68.9016 23.3375 68.9016H13.6217V76.7482H23.3375V76.7006ZM13.6217 48.5481V56.3947H20.8475C23.0934 56.3947 24.8998 54.6352 24.8998 52.4952C24.8998 50.3552 23.0934 48.5957 20.8475 48.5957H13.6217V48.5481ZM35.2991 61.1026C38.4238 64.0986 40.3767 68.2359 40.3767 72.8011C40.3767 81.8841 32.7603 89.2551 23.3375 89.2551H0.634766V35.9937H20.7987C30.2215 35.9937 37.8379 43.3647 37.8379 52.4476C37.8379 55.6338 36.9103 58.5822 35.2991 61.1026ZM125.622 64.3839H119.177V74.2278C119.177 77.2237 120.154 79.4113 122.741 79.4113C124.401 79.4113 125.622 79.0308 125.622 79.0308V88.2565C125.622 88.2565 122.936 89.8258 119.275 89.8258H119.128C118.982 89.8258 118.835 89.8258 118.64 89.8258H118.494C118.445 89.8258 118.347 89.8258 118.249 89.8258C111.024 89.4453 106.092 85.0703 106.092 77.414V44.934L119.079 42.2709V51.8294H125.622V64.3839Z" fill="#272727"/>
</g>
<defs>
<clipPath id="clip0_166_1652">
<rect width="124.987" height="121.741" fill="white" transform="translate(0.632812 0.802734)"/>
</clipPath>
</defs>
</svg>
